<mxfile host="app.diagrams.net" modified="2022-11-22T02:08:42.645Z" agent="5.0 (Macintosh; Intel Mac OS X 10_15_7) AppleWebKit/605.1.15 (KHTML, like Gecko) Version/16.0 Safari/605.1.15" etag="y_fOXLES7UqK3SLaKSPa" version="20.5.3" type="github">
  <diagram id="pgQy9CMQZleVBEZ8h6SK" name="Page-1">
    <mxGraphModel dx="1426" dy="802" grid="1" gridSize="10" guides="1" tooltips="1" connect="1" arrows="1" fold="1" page="1" pageScale="1" pageWidth="827" pageHeight="350" background="#182E3E" math="0" shadow="0">
      <root>
        <mxCell id="0" />
        <mxCell id="1" parent="0" />
        <mxCell id="F3ODdu9Id5-TkDY6Yrye-14" value="" style="shape=ext;double=1;rounded=0;whiteSpace=wrap;html=1;labelBackgroundColor=none;labelBorderColor=none;strokeColor=#182E3E;strokeWidth=5;fontFamily=Verdana;fontSize=22;fontColor=#D5E8D4;fillColor=none;" vertex="1" parent="1">
          <mxGeometry x="10" y="10" width="810" height="330" as="geometry" />
        </mxCell>
        <mxCell id="sB5YSksWXAwUr_dnZgDB-1" value="&lt;font style=&quot;font-size: 26px;&quot; face=&quot;Verdana&quot; color=&quot;#ffffff&quot;&gt;Trail Road Class&lt;/font&gt;" style="rounded=1;whiteSpace=wrap;html=1;strokeColor=#FFFFFF;fontColor=#1A1A1A;fillColor=none;strokeWidth=5;" parent="1" vertex="1">
          <mxGeometry x="293.65999999999997" y="50" width="240" height="70" as="geometry" />
        </mxCell>
        <mxCell id="F3ODdu9Id5-TkDY6Yrye-3" value="Trail&lt;br&gt;Demographic" style="rounded=1;whiteSpace=wrap;html=1;labelBackgroundColor=none;labelBorderColor=#182E3E;strokeColor=#FFFFFF;strokeWidth=5;fontFamily=Verdana;fontSize=20;fontColor=#FFFFFF;fillColor=none;" vertex="1" parent="1">
          <mxGeometry x="59" y="220" width="150" height="70" as="geometry" />
        </mxCell>
        <mxCell id="F3ODdu9Id5-TkDY6Yrye-4" value="" style="shape=curlyBracket;whiteSpace=wrap;html=1;rounded=1;flipH=1;labelPosition=right;verticalLabelPosition=middle;align=left;verticalAlign=middle;labelBackgroundColor=none;labelBorderColor=#182E3E;strokeColor=#FFFFFF;strokeWidth=5;fontFamily=Verdana;fontSize=20;fontColor=#FFFFFF;fillColor=none;rotation=-90;size=0.5;" vertex="1" parent="1">
          <mxGeometry x="396.28" y="-170" width="35.44" height="721.25" as="geometry" />
        </mxCell>
        <mxCell id="F3ODdu9Id5-TkDY6Yrye-5" value="Trail Recreation" style="rounded=1;whiteSpace=wrap;html=1;labelBackgroundColor=none;labelBorderColor=#182E3E;strokeColor=#FFFFFF;strokeWidth=5;fontFamily=Verdana;fontSize=20;fontColor=#FFFFFF;fillColor=none;" vertex="1" parent="1">
          <mxGeometry x="246" y="220" width="150" height="70" as="geometry" />
        </mxCell>
        <mxCell id="F3ODdu9Id5-TkDY6Yrye-6" value="Trail Skid" style="rounded=1;whiteSpace=wrap;html=1;labelBackgroundColor=none;labelBorderColor=#182E3E;strokeColor=#FFFFFF;strokeWidth=5;fontFamily=Verdana;fontSize=20;fontColor=#FFFFFF;fillColor=none;" vertex="1" parent="1">
          <mxGeometry x="432" y="220" width="150" height="70" as="geometry" />
        </mxCell>
        <mxCell id="F3ODdu9Id5-TkDY6Yrye-7" value="All Other Values" style="rounded=1;whiteSpace=wrap;html=1;labelBackgroundColor=none;labelBorderColor=none;strokeColor=#D5E8D4;strokeWidth=5;fontFamily=Verdana;fontSize=20;fontColor=#D5E8D4;fillColor=#003300;" vertex="1" parent="1">
          <mxGeometry x="619" y="220" width="150" height="70" as="geometry" />
        </mxCell>
        <mxCell id="F3ODdu9Id5-TkDY6Yrye-8" value="Road Type Values" style="text;html=1;strokeColor=none;fillColor=none;align=center;verticalAlign=middle;whiteSpace=wrap;rounded=0;labelBackgroundColor=none;labelBorderColor=#182E3E;strokeWidth=5;fontFamily=Verdana;fontSize=22;fontColor=#FFFFFF;" vertex="1" parent="1">
          <mxGeometry x="308.65999999999997" y="140" width="210" height="30" as="geometry" />
        </mxCell>
      </root>
    </mxGraphModel>
  </diagram>
</mxfile>
